<!--
  - Copyright (c) 2023. Patrick Schmidt.
  - All rights reserved.
  -->

<svg width="388.42" height="264.83" xmlns="http://www.w3.org/2000/svg" data-name="Layer 1">

    <g>
        <title>Layer 1</title>
        <g data-name="001---Flying-Bot" id="_001---Flying-Bot">
            <path fill="#9e0000" d="m344.28,194.2l-17.66,-44.14l17.66,-44.14a44.14,44.14 0 0 1 0,88.28z" class="cls-1"
                  id="Shape"/>
            <path fill="#9e0000" d="m44.14,194.2l17.66,-44.14l-17.66,-44.14a44.14,44.14 0 0 0 0,88.28z" class="cls-1"
                  data-name="Shape" id="Shape-2"/>
            <path fill="#bc0000"
                  d="m150.07,0l88.28,0a105.93,105.93 0 0 1 105.93,105.93l0,105.93a53,53 0 0 1 -53,53l-194.17,0a53,53 0 0 1 -53,-53l0,-105.93a105.93,105.93 0 0 1 105.96,-105.93z"
                  class="cls-2" data-name="Shape" id="Shape-3"/>
            <path fill="#ff5c5c"
                  d="m141.21,79.41l106,0a61.79,61.79 0 0 1 61.79,61.79l0,17.66a61.79,61.79 0 0 1 -61.79,61.82l-106,0a61.79,61.79 0 0 1 -61.79,-61.79l0,-17.66a61.8,61.8 0 0 1 61.79,-61.82z"
                  class="cls-3" id="Rectangle-path"/>
            <path fill="#47505e"
                  d="m167.73,167.72a8.83,8.83 0 0 1 -8.83,-8.83a17.66,17.66 0 1 0 -35.32,0a8.83,8.83 0 0 1 -17.66,0a35.31,35.31 0 1 1 70.62,0a8.81,8.81 0 0 1 -8.81,8.83z"
                  class="cls-4" data-name="Shape" id="Shape-4"/>
            <path fill="#47505e"
                  d="m273.66,167.72a8.83,8.83 0 0 1 -8.83,-8.83a17.66,17.66 0 0 0 -35.32,0a8.83,8.83 0 1 1 -17.66,0a35.31,35.31 0 0 1 70.62,0a8.8,8.8 0 0 1 -8.81,8.83z"
                  class="cls-4" data-name="Shape" id="Shape-5"/>
            <path fill="#ebeff0"
                  d="m247.21,229.51l-106,0a70.7,70.7 0 0 1 -70.62,-70.62l0,-17.66a70.7,70.7 0 0 1 70.62,-70.62l106,0a70.7,70.7 0 0 1 70.62,70.62l0,17.66a70.69,70.69 0 0 1 -70.62,70.62zm-106,-141.24a53,53 0 0 0 -53,53l0,17.66a53,53 0 0 0 53,53l106,0a53,53 0 0 0 53,-53l0,-17.69a53,53 0 0 0 -53,-53l-106,0.03z"
                  class="cls-5" data-name="Shape" id="Shape-6"/>
        </g>
    </g>
</svg>