<!--
  - Copyright (c) 2023. Patrick Schmidt.
  - All rights reserved.
  -->

<svg width="400.21" height="272.87" xmlns="http://www.w3.org/2000/svg" data-name="Layer 1">

    <g>
        <title>Layer 1</title>
        <g data-name="001---Flying-Bot" id="_001---Flying-Bot">
            <path fill="#007716" d="m354.73,200.09l-18.2,-45.48l18.2,-45.47a45.48,45.48 0 1 1 0,90.95z" class="cls-1"
                  id="Shape"/>
            <path fill="#007716" d="m45.48,200.09l18.2,-45.48l-18.2,-45.47a45.48,45.48 0 1 0 0,90.95z" class="cls-1"
                  data-name="Shape" id="Shape-2"/>
            <path fill="#00bf00"
                  d="m154.63,0l90.95,0a109.15,109.15 0 0 1 109.15,109.15l0,109.14a54.58,54.58 0 0 1 -54.58,54.58l-200.09,0a54.58,54.58 0 0 1 -54.58,-54.58l0,-109.14a109.15,109.15 0 0 1 109.15,-109.15z"
                  class="cls-2" data-name="Shape" id="Shape-3"/>
            <path fill="#00e526"
                  d="m145.53,81.85l109.14,0a63.67,63.67 0 0 1 63.67,63.67l0,18.19a63.67,63.67 0 0 1 -63.67,63.7l-109.14,0a63.67,63.67 0 0 1 -63.67,-63.67l0,-18.22a63.68,63.68 0 0 1 63.67,-63.67z"
                  class="cls-3" id="Rectangle-path"/>
            <path fill="#47505e"
                  d="m172.82,172.81a9.09,9.09 0 0 1 -9.1,-9.1a18.2,18.2 0 0 0 -36.39,0a9.1,9.1 0 1 1 -18.19,0a36.38,36.38 0 0 1 72.76,0a9.08,9.08 0 0 1 -9.08,9.1z"
                  class="cls-4" data-name="Shape" id="Shape-4"/>
            <path fill="#47505e"
                  d="m281.97,172.81a9.09,9.09 0 0 1 -9.1,-9.1a18.2,18.2 0 0 0 -36.39,0a9.1,9.1 0 1 1 -18.2,0a36.38,36.38 0 0 1 72.76,0a9.07,9.07 0 0 1 -9.07,9.1z"
                  class="cls-4" data-name="Shape" id="Shape-5"/>
            <path fill="#ebeff0"
                  d="m254.68,236.48l-109.15,0a72.85,72.85 0 0 1 -72.77,-72.77l0,-18.19a72.85,72.85 0 0 1 72.77,-72.77l109.14,0a72.85,72.85 0 0 1 72.77,72.77l0,18.19a72.84,72.84 0 0 1 -72.76,72.77zm-109.15,-145.53a54.64,54.64 0 0 0 -54.58,54.58l0,18.19a54.64,54.64 0 0 0 54.58,54.58l109.14,0a54.64,54.64 0 0 0 54.54,-54.58l0,-18.19a54.64,54.64 0 0 0 -54.58,-54.58l-109.1,0z"
                  class="cls-5" data-name="Shape" id="Shape-6"/>
        </g>
    </g>
</svg>