<?xml version="1.0" encoding="UTF-8" standalone="no"?>
<!--
  - Copyright (c) 2023. Patrick Schmidt.
  - All rights reserved.
  -->

<!DOCTYPE svg PUBLIC "-//W3C//DTD SVG 1.1//EN" "http://www.w3.org/Graphics/SVG/1.1/DTD/svg11.dtd">
<svg xmlns="http://www.w3.org/2000/svg" version="1.1" viewBox="0 0 512 512">
    <g stroke-width="2.00" fill="none" stroke-linecap="butt">
        <path stroke="#ee0202" vector-effect="non-scaling-stroke" d="
  M 254.00 287.29
  Q 254.99 286.08 255.01 285.00
  Q 255.28 268.08 254.75 242.26"
        />
        <path stroke="#ee0202" vector-effect="non-scaling-stroke" d="
  M 253.75 130.04
  Q 254.06 130.07 254.41 129.92
  Q 254.84 129.73 254.86 129.25
  Q 255.42 116.88 254.55 104.39"
        />
        <path stroke="#ee0202" vector-effect="non-scaling-stroke" d="
  M 256.00 300.71
  Q 257.01 301.38 257.01 302.75
  Q 257.01 322.31 256.99 341.87
  Q 256.99 342.12 257.17 342.30
  L 257.44 342.56
  Q 257.82 342.94 257.48 343.36
  L 257.00 343.96"
        />
        <path stroke="#ee0202" vector-effect="non-scaling-stroke" d="
  M 256.50 358.46
  Q 256.80 358.50 257.07 358.67
  Q 257.47 358.92 257.27 359.35
  Q 257.00 359.92 257.00 360.25
  Q 256.91 386.12 257.13 412.00"
        />
        <path stroke="#f57303" vector-effect="non-scaling-stroke" d="
  M 255.57 164.98
  L 254.55 164.86
  Q 253.98 164.79 253.98 164.21
  C 254.02 154.92 255.17 142.64 253.21 137.50"
        />
        <path stroke="#f57303" vector-effect="non-scaling-stroke" d="
  M 255.50 173.46
  C 253.94 175.74 255.01 200.19 255.02 204.69
  Q 255.03 205.67 256.04 206.25"
        />
    </g>
    <path fill="#dc0303" d="
  M 254.00 287.29
  Q 254.99 286.08 255.01 285.00
  Q 255.28 268.08 254.75 242.26
  Q 302.89 217.92 351.16 193.38
  Q 354.33 191.77 355.57 189.75
  C 361.47 180.08 351.16 175.02 344.17 171.84
  Q 300.82 152.12 257.56 132.19
  Q 256.29 131.61 253.75 130.04
  Q 254.06 130.07 254.41 129.92
  Q 254.84 129.73 254.86 129.25
  Q 255.42 116.88 254.55 104.39
  Q 254.54 104.20 254.95 104.37
  Q 317.53 130.27 379.94 156.55
  C 392.98 162.04 432.70 186.77 405.15 203.59
  Q 392.36 211.41 379.31 218.81
  Q 317.79 253.72 256.10 288.33
  Q 255.63 288.59 255.22 288.26
  L 254.00 287.29
  Z"
    />
    <path fill="#ff0000" d="
  M 254.55 104.39
  Q 255.42 116.88 254.86 129.25
  Q 254.84 129.73 254.41 129.92
  Q 254.06 130.07 253.75 130.04
  Q 252.57 129.20 251.78 129.57
  Q 211.95 148.25 172.06 166.82
  Q 164.81 170.19 159.74 172.06
  C 145.82 177.21 152.17 185.74 160.70 191.04
  C 190.93 209.79 222.41 226.07 253.75 242.20
  Q 254.04 242.92 254.75 242.26
  Q 255.28 268.08 255.01 285.00
  Q 254.99 286.08 254.00 287.29
  Q 186.95 249.96 120.11 212.26
  C 108.67 205.81 82.89 185.99 105.50 173.23
  Q 116.12 167.24 127.21 161.98
  Q 190.25 132.03 254.55 104.39
  Z"
    />
    <path fill="#ff8400" d="
  M 255.57 164.98
  L 254.55 164.86
  Q 253.98 164.79 253.98 164.21
  C 254.02 154.92 255.17 142.64 253.21 137.50
  Q 254.01 136.95 254.72 137.31
  Q 263.01 141.45 271.45 145.29
  Q 311.40 163.48 351.29 181.81
  Q 351.69 182.00 351.33 182.26
  L 328.06 198.88
  Q 327.62 199.20 327.13 198.97
  L 255.57 164.98
  Z"
    />
    <path fill="#eb6106" d="
  M 253.21 137.50
  C 255.17 142.64 254.02 154.92 253.98 164.21
  Q 253.98 164.79 254.55 164.86
  L 255.57 164.98
  L 184.23 198.03
  A 1.30 1.30 0.0 0 1 182.98 197.94
  L 160.92 183.62
  A 0.54 0.53 -41.6 0 1 160.98 182.69
  L 253.21 137.50
  Z"
    />
    <path fill="#eb6106" d="
  M 255.50 173.46
  C 253.94 175.74 255.01 200.19 255.02 204.69
  Q 255.03 205.67 256.04 206.25
  C 246.14 212.10 235.43 216.97 225.16 222.19
  Q 224.74 222.40 224.33 222.16
  L 190.51 201.67
  A 0.36 0.36 0.0 0 1 190.54 201.04
  Q 221.30 186.35 250.73 172.21
  Q 253.24 171.01 255.50 173.46
  Z"
    />
    <path fill="#ff8400" d="
  M 255.50 173.46
  L 314.37 201.15
  A 0.43 0.43 0.0 0 1 314.43 201.89
  L 290.50 218.25
  A 1.33 1.33 0.0 0 1 289.31 218.39
  C 285.45 216.91 257.84 205.58 256.04 206.25
  Q 255.03 205.67 255.02 204.69
  C 255.01 200.19 253.94 175.74 255.50 173.46
  Z"
    />
    <path fill="#ff0000" d="
  M 256.00 300.71
  Q 257.01 301.38 257.01 302.75
  Q 257.01 322.31 256.99 341.87
  Q 256.99 342.12 257.17 342.30
  L 257.44 342.56
  Q 257.82 342.94 257.48 343.36
  L 257.00 343.96
  Q 256.11 343.85 255.35 343.38
  Q 177.32 295.56 99.34 247.65
  C 91.79 243.01 87.03 234.08 88.32 225.23
  C 88.99 220.58 91.28 214.42 95.79 212.08
  C 98.17 210.84 99.10 211.82 101.53 213.25
  Q 177.08 257.44 252.62 301.66
  Q 253.09 301.94 253.59 301.72
  L 256.00 300.71
  Z"
    />
    <path fill="#dc0303" d="
  M 257.00 343.96
  L 257.48 343.36
  Q 257.82 342.94 257.44 342.56
  L 257.17 342.30
  Q 256.99 342.12 256.99 341.87
  Q 257.01 322.31 257.01 302.75
  Q 257.01 301.38 256.00 300.71
  Q 257.11 299.61 259.02 298.53
  Q 335.17 255.36 411.72 211.72
  A 1.05 1.04 -47.8 0 1 412.64 211.67
  C 418.09 214.00 424.61 219.56 425.42 225.90
  C 426.62 235.31 413.40 245.77 406.71 250.46
  C 359.60 283.49 309.22 313.40 258.05 343.80
  Q 257.51 344.13 257.00 343.96
  Z"
    />
    <path fill="#ff0000" d="
  M 256.50 358.46
  Q 256.80 358.50 257.07 358.67
  Q 257.47 358.92 257.27 359.35
  Q 257.00 359.92 257.00 360.25
  Q 256.91 386.12 257.13 412.00
  L 255.97 412.63
  Q 255.50 412.88 255.06 412.58
  Q 173.68 358.70 92.30 304.81
  C 84.17 299.42 79.29 294.30 75.41 286.05
  C 70.66 275.97 76.11 267.49 82.27 259.79
  Q 83.92 257.73 85.97 256.62
  Q 86.43 256.37 86.88 256.65
  L 252.89 360.09
  Q 253.33 360.36 253.77 360.10
  L 256.50 358.46
  Z"
    />
    <path fill="#dc0303" d="
  M 257.13 412.00
  Q 256.91 386.12 257.00 360.25
  Q 257.00 359.92 257.27 359.35
  Q 257.47 358.92 257.07 358.67
  Q 256.80 358.50 256.50 358.46
  Q 261.20 355.26 266.05 352.30
  Q 344.37 304.49 422.76 256.66
  A 1.36 1.36 0.0 0 1 424.45 256.88
  C 437.69 270.61 441.33 289.82 423.04 302.06
  Q 341.13 356.87 258.83 411.10
  Q 257.93 411.69 257.13 412.00
  Z"
    />
</svg>
