<!--
  - Copyright (c) 2023. Patrick Schmidt.
  - All rights reserved.
  -->

<svg xmlns="http://www.w3.org/2000/svg" viewBox="0 0 24 24">
    <g>
        <title>Layer 1</title>
        <path stroke="null" id="svg_1" fill="#01A299"
              d="m11.99531,0.32765c2.65546,0.00097 5.23407,0.88126 7.33315,2.50177a11.92914,11.92914 0 0 1 4.26041,6.44994a11.8912,11.8912 0 0 1 -0.59626,7.69889a11.94957,11.94957 0 0 1 -5.20295,5.72334c0.16633,-3.3772 0.12645,-7.39832 -1.82478,-8.75912a0.71104,0.71104 0 0 1 -0.01654,-0.15758a4.11158,4.11158 0 0 0 1.85493,-3.42292l0,-0.28305a4.08824,4.08824 0 0 0 -1.18669,-2.87432a4.00167,4.00167 0 0 0 0.89391,-2.36851c-0.34239,0.33363 -0.71007,0.64198 -1.09817,0.92212a8.40214,8.40214 0 0 1 -1.67206,0.93573c-2.77218,1.13903 -5.85368,0.53498 -8.29612,-1.85785a4.00751,4.00751 0 0 0 0.93962,2.42493a4.08532,4.08532 0 0 0 -1.13222,2.8179l0,0.28305a4.09699,4.09699 0 0 0 1.89967,3.45307c0,0.06712 -0.00486,0.13618 -0.01556,0.20718l-0.01945,0.02432c-2.18078,1.65553 -2.06017,6.47426 0.39297,9.6258a11.97388,11.97388 0 0 1 -6.626,-5.04051a11.89607,11.89607 0 0 1 2.29945,-15.40361a12.00501,12.00501 0 0 1 7.81366,-2.90058l-0.00097,0z"
              clip-rule="evenodd" fill-rule="evenodd"/>
    </g>
</svg>