<!--
  - Copyright (c) 2023-2025. Patrick Schmidt.
  - All rights reserved.
  -->

<svg xmlns="http://www.w3.org/2000/svg" viewBox="210 212 584 584">

    <g>
        <title>Layer 1</title>
        <g id="Layer_1"/>
        <g id="Layer_2">
            <path fill="#FFFFFF" d="M785.71,221.69c-1.28-1.46-2.93-2.19-4.86-2.19-1.47,0-3.02.09-4.49.18h.18c-11.45.46-22.82,1.46-34.18,2.83-11.36,1.46-22.63,3.2-33.81,5.48-102.17,21.38-195,82.05-264.18,158.8-5.96,6.67-12,13.52-17.59,20.47-73.86-7.13-136.99,16.63-193.62,63.14-4.58,3.84-19.98,16.08-20.62,21.56-.18,1.46.27,2.83,1.28,3.93,2.38,2.56,7.97,1.92,11.09,1.92,3.39.09,6.78.27,10.17.64,3.39.27,6.78.73,10.08,1.37,3.3.64,6.6,1.37,9.9,2.19,3.3.82,6.51,1.83,9.71,2.92,25.47,8.59,48.84,24.12,67.63,43.31-5.86,5.85-12.28,12.15-16.86,19.01,1.37,1.83,118.57,119.06,120.13,119.61,7.24-5.21,13.93-12.06,20.62-18,26.48,28.96,43.07,61.13,50.4,99.69,1.65,8.59,1.65,17.45,3.3,25.95,31.98-23.94,60.75-67.43,74.31-104.62,4.86-13.43,8.25-27.78,10.26-41.94,3.02-21.47,4.03-46.51.09-67.89,19.06-16.36,38.12-33.17,55.44-51.26,13.2-13.98,25.75-28.6,37.57-43.77,59.38-75.93,92.55-157.34,99.7-253.74.18-3.11.55-7.04-1.65-9.59ZM600.68,464.74c-33.11,0-59.95-26.77-59.95-59.78s26.84-59.78,59.95-59.78,59.95,26.77,59.95,59.78-26.84,59.78-59.95,59.78Z"/>
            <path fill="#5039bf" d="M307.23,600.6c-33.5,13.63-56.83,43.57-70.45,76.09-13.69,32.83-17.82,72.66-19.89,107.93,4.36-.23,8.72-.61,13.08-.99,53.08-4.72,115.12-16.76,151.3-59.64,7.57-8.99,13.69-19.27,18.82-29.78,1.22.61-94.16-94.98-92.86-93.61Z"/>
        </g>
    </g>
</svg>