<!--
  - Copyright (c) 2023. Patrick Schmidt.
  - All rights reserved.
  -->

<svg xmlns="http://www.w3.org/2000/svg" viewBox="0 0 584 584">

    <g>
        <title>Layer 1</title>
        <g id="Layer_1"/>
        <g id="Layer_2">
            <path id="svg_2" fill="#a65eb7"
                  d="m583.51184,11.91644c-0.15,-6.49 -5.38,-11.72 -11.87,-11.87c-37.99,-0.65 -77.81,5.54 -117.06,17.51c-78.26,23.85 -154.26,70.68 -209.03,132.14c-78.58,1.48 -155.08,33.93 -211.42,90.27c-3.28,3.23 -4.45,8.08 -3.02,12.45c1.44,4.4 5.25,7.59 9.83,8.24l93.68,13.42l-11.57,12.96c-4.28,4.81 -4.09,12.13 0.48,16.71l156.29,156.28c2.38,2.36 5.49,3.55 8.61,3.55c2.86,0 5.78,-1.03 8.07,-3.09l12.97,-11.58l13.44,93.75c0.63,4.57 4.23,7.92 8.61,9.38c1.12,0.37 2.31,0.54 3.48,0.54c3.42,0 6.97,-1.48 9.41,-3.91c55.58,-55.56 88.01,-132.1 89.48,-210.71c60.77,-54.2 107.47,-128.94 131.57,-206.1c12.54,-40.18 18.96,-81.01 18.06,-119.95l-0.01,0.01zm-141.09,180.84c-14.23,14.18 -37.37,14.2 -51.6,0c-14.2,-14.23 -14.2,-37.37 0,-51.6c7.1,-7.1 16.47,-10.65 25.8,-10.65s18.67,3.57 25.8,10.65c14.2,14.23 14.2,37.37 0,51.6z"/>
            <path id="svg_3" fill="#492891"
                  d="m172.54184,517.35644c-26.02,26.02 -143.57,61.74 -156.87,65.73c-1.17,0.32 -2.34,0.49 -3.5,0.49c-3.19,0 -6.28,-1.24 -8.62,-3.55c-3.16,-3.16 -4.32,-7.81 -3.04,-12.09c3.99,-13.3 39.71,-130.85 65.73,-156.86c29.3,-29.3 76.99,-29.33 106.29,0c29.3,29.3 29.3,76.98 0,106.28l0.01,0z"/>
        </g>
    </g>
</svg>