<!--
  - Copyright (c) 2024. Patrick Schmidt.
  - All rights reserved.
  -->

<svg xmlns="http://www.w3.org/2000/svg" data-name="Layer 1" width="785" height="260.84115" viewBox="0 0 785 260.84115"
>
    <path d="M326.44075,478.69145a52.292,52.292,0,0,1-17.34668-2.94531l-.415-.14551.3418-1.59863c-10.08887-19.76074-6.605-46.92041,8.89892-69.25244,14.104-20.31641,35.58447-35.10645,54.53369-48.15283h0a14.23158,14.23158,0,0,1,22.02881,14.50244l-6.69922,33.62451c-4.877,24.48535-10.67578,47.65625-27.83887,62.06152A52.93708,52.93708,0,0,1,326.44075,478.69145Z"
          transform="translate(-207.47297 -319.40078)" fill="#6c63ff"/>
    <path id="ffbc6c51-bae4-4fa4-8657-d565cf4c059e-374" data-name="abd51855-a673-4ef9-adc8-1347fdb580b5-45"
          d="M313.56269,560.80492c-3.50732-25.55268-7.11593-51.43576-4.64984-77.26242,2.18546-22.93711,9.18348-45.33609,23.4303-63.70972a105.983,105.983,0,0,1,27.19171-24.641c2.71848-1.71552,5.22113,2.59225,2.51425,4.30115a100.75633,100.75633,0,0,0-39.85592,48.08615c-8.677,22.06857-10.07025,46.12658-8.57569,69.57013.90342,14.17706,2.82315,28.26117,4.75116,42.32867a2.58071,2.58071,0,0,1-1.74038,3.06391,2.506,2.506,0,0,1-3.06394-1.74036Z"
          transform="translate(-207.47297 -319.40078)" fill="#3f3d56"/>
    <path d="M370.91584,537.59868A39.135,39.135,0,0,1,338.39,520.0772l-.24317-.36915.97315-.82519c2.92724-16.09277,17.10546-30.46289,36.17627-36.64453,17.33056-5.61719,36.52832-4.69922,53.46093-3.88574h0a10.60774,10.60774,0,0,1,6.51416,18.54785l-18.91943,16.70508C402.558,525.78911,388.808,536.79009,372.2845,537.57335,371.828,537.58989,371.37043,537.59868,370.91584,537.59868Z"
          transform="translate(-207.47297 -319.40078)" fill="#6c63ff"/>
    <path id="aeb1fa48-cf11-4fd0-bcf3-ed4f5186d710-375" data-name="b6a87e1b-685a-4f79-adc0-a59c983b9bff-46"
          d="M303.64854,575.49352c16.88562-29.877,36.46982-63.082,71.46664-73.69529a79.74843,79.74843,0,0,1,30.058-3.10382c3.1918.2757,2.39465,5.19455-.7905,4.92057a74.089,74.089,0,0,0-47.96991,12.69085c-13.52609,9.20673-24.058,22.00714-32.97082,35.57972-5.46024,8.315-10.35092,16.982-15.24158,25.63732C306.63771,580.28948,302.06761,578.29173,303.64854,575.49352Z"
          transform="translate(-207.47297 -319.40078)" fill="#3f3d56"/>
    <path d="M477.29914,535.90434a22.84833,22.84833,0,0,1-7.58105-1.28711l-.415-.1455.1792-.83594c-4.34521-8.61328-2.8208-20.40039,3.90625-30.09082,6.1167-8.81152,15.41065-15.21,23.60889-20.85449h0a6.42629,6.42629,0,0,1,9.94726,6.54882l-2.89111,14.5127c-2.11572,10.62012-4.63379,20.67188-12.11133,26.94727A23.13133,23.13133,0,0,1,477.29914,535.90434Z"
          transform="translate(-207.47297 -319.40078)" fill="#6c63ff"/>
    <path id="befe610e-f590-49ec-bffb-7dad48495fb9-376" data-name="ebf62926-f2ef-4574-b3b9-03deb0cc338a-47"
          d="M471.74125,571.06078c-1.51376-11.02857-3.07126-22.19971-2.00686-33.34644.94323-9.89966,3.96359-19.56708,10.11251-27.49713a45.74149,45.74149,0,0,1,11.73594-10.635c1.17331-.74042,2.25344,1.11881,1.08514,1.85638a43.48654,43.48654,0,0,0-17.20181,20.754c-3.745,9.52478-4.34632,19.90827-3.70127,30.02649.38993,6.11884,1.21848,12.19751,2.0506,18.269a1.11379,1.11379,0,0,1-.75116,1.32238,1.08154,1.08154,0,0,1-1.32239-.75116Z"
          transform="translate(-207.47297 -319.40078)" fill="#3f3d56"/>
    <path d="M496.496,561.32915a17.17524,17.17524,0,0,1-14.27685-7.69043l-.24268-.36914.53418-.4541c1.32276-7.00684,7.498-13.24805,15.78711-15.93457,7.53027-2.44043,15.83984-2.043,23.17481-1.69043a4.86244,4.86244,0,0,1,2.98632,8.50195l-8.16552,7.21c-5.99317,5.293-11.97071,10.07324-19.19385,10.415C496.89827,561.32524,496.69661,561.32915,496.496,561.32915Z"
          transform="translate(-207.47297 -319.40078)" fill="#6c63ff"/>
    <path id="b53d741b-ef59-4c7c-affc-95472d9c2a68-377" data-name="ab8c1ad0-4924-41ff-9be1-1da9c47377aa-48"
          d="M467.46229,577.40044c7.28784-12.895,15.74036-27.2262,30.845-31.80689a34.42,34.42,0,0,1,12.973-1.3396c1.37757.119,1.03351,2.242-.34118,2.12372a31.97664,31.97664,0,0,0-20.7038,5.47736c-5.83786,3.97363-10.38345,9.49829-14.23022,15.3562-2.35663,3.58874-4.46744,7.32941-6.57828,11.06506C468.75242,579.47038,466.78,578.60808,467.46229,577.40044Z"
          transform="translate(-207.47297 -319.40078)" fill="#3f3d56"/>
    <path d="M898.66633,534.93755c-8.64844,0-15.24023-4.66992-20.01562-14.11621-4.57715-9.05664.16992-16.876,6.51855-20.3086,6.36133-3.44043,15.52246-3.13086,20.60156,5.67285h0c4.9502,8.57911,5.51856,17.47071,1.68946,26.43164l.18847.87989-.44921.1289A31.017,31.017,0,0,1,898.66633,534.93755Z"
          transform="translate(-207.47297 -319.40078)" fill="#6c63ff"/>
    <path id="e8eb6681-5211-4dd4-9f94-0d3c8ea84ba4-378" data-name="fe56ea42-b5c6-4c01-a160-1e56b0952e49-49"
          d="M907.20472,579.06078c4.42249-25.01355,4.70166-56.69464-19.84253-71.47846-1.17236-.74057-2.2525,1.11865-1.08422,1.8562,23.69653,14.33252,22.99267,44.93872,18.85156,69.04969a1.07647,1.07647,0,0,0,2.0744.5711Z"
          transform="translate(-207.47297 -319.40078)" fill="#3f3d56"/>
    <path d="M794.38313,559.35845a21.01114,21.01114,0,0,1-8.88379-2.23731c-6.958-3.26562-7.71484-10.124-5.47363-15.11523,2.21679-4.93555,7.78808-8.88086,14.78222-5.87793a20.88827,20.88827,0,0,1,12.61329,14.67578l.56933.48242-.28027.377C803.88118,556.80278,799.47688,559.35845,794.38313,559.35845Z"
          transform="translate(-207.47297 -319.40078)" fill="#6c63ff"/>
    <path id="a29d0e9a-5ecc-4f87-bdab-d30ce58fe09b-379" data-name="bd957783-9dde-42d5-bbc3-75df1df1a96d-50"
          d="M827.48365,577.40044c-8.7088-16.672-22.6167-35.52667-43.81854-33.14588-1.37707.11841-1.033,2.2414.34168,2.12311,20.139-2.0841,33.24224,16.0282,41.51184,31.89911C826.19355,579.47038,828.166,578.60808,827.48365,577.40044Z"
          transform="translate(-207.47297 -319.40078)" fill="#3f3d56"/>
    <path d="M991.473,580.24193h-783a1,1,0,0,1,0-2h783a1,1,0,0,1,0,2Z" transform="translate(-207.47297 -319.40078)"
          fill="#cacaca"/>
    <path d="M803.473,514.24193h-261a1,1,0,0,1,0-2h261a1,1,0,0,1,0,2Z" transform="translate(-207.47297 -319.40078)"
          fill="#cacaca"/>
    <path d="M676.65925,346.33034l-1.71844-21.39163a2.89862,2.89862,0,0,0-4.744-1.1127c-13.79132,3.3836-19.35632,10.58413-20.95038,19.62713a61.78277,61.78277,0,0,0-20.13959-.90646c4.84815-6.90061,4.51386-13.93366-.52923-21.087a2.89868,2.89868,0,0,0-4.72278-1.30539c-9.32831,4.71472-15.853,10.59021-16.90369,18.73239a62.20293,62.20293,0,1,0,69.70807,7.44367Z"
          transform="translate(-207.47297 -319.40078)" fill="#3f3d56"/>
    <path d="M684.42568,433.13969c50.415-6.46679,78.77539,75.76709-2.55664,80.34864-4.99023,5.47509-44.10325,10.0534-77.25038,2.49444-29.75242,1.192-63.57489-37.72556-21.86682-90.806Z"
          transform="translate(-207.47297 -319.40078)" fill="#3f3d56"/>
    <polyline points="426.623 156.172 426.623 197.774 446.073 197.774 461.505 155.413" fill="#3f3d56"/>
    <path d="M703.5738,503.145c-.10693-.15308-.18457-.31421-.27734-.4712q-1.24292.04569-2.48584.09162Z"
          transform="translate(-207.47297 -319.40078)" fill="#3f3d56"/>
    <path d="M780.20906,479.10726c-6.209-9.92377-21.40088-12.68116-30.70117-5.57233-4.19678,3.20788-7.0254,7.84534-10.61084,11.72455A39.30647,39.30647,0,0,1,716.067,497.342c-6.09375.91357-12.53907.4176-18.16651,2.92675-5.45752,2.43317-9.5747,9.37922-6.604,14.40506q31.42089-1.15814,62.84131-2.316c6.02637-.22211,12.26709-.49683,17.65576-3.20386C782.254,503.89919,786.418,489.03108,780.20906,479.10726Z"
          transform="translate(-207.47297 -319.40078)" fill="#3f3d56"/>
    <path d="M631.56544,450.36156a62.39076,62.39076,0,0,1-25.046-4.99787c-16.525-7.17318-24.09924-19.27835-24.41357-19.79007a.75832.75832,0,0,1,1.292-.79422,55.77511,55.77511,0,0,0,23.80194,19.22614c14.88086,6.43378,40.29272,9.65732,76.84515-11.522a.75835.75835,0,1,1,.76056,1.31222h0C663.34864,446.22862,645.633,450.36156,631.56544,450.36156Z"
          transform="translate(-207.47297 -319.40078)" fill="#fff"/>
    <path d="M634.85414,411.87483a5.31415,5.31415,0,0,1-5.30817-5.30816.75831.75831,0,0,1,1.5166,0,3.79154,3.79154,0,0,0,7.58307,0,.75831.75831,0,0,1,1.5166,0A5.31413,5.31413,0,0,1,634.85414,411.87483Z"
          transform="translate(-207.47297 -319.40078)" fill="#fff"/>
    <ellipse cx="427.76035" cy="77.68702" rx="6.06647" ry="2.33326" fill="#fff"/>
    <path d="M594.44239,397.2589a18.49645,18.49645,0,0,1,28.3913,0,20.55818,20.55818,0,1,0-29.06586-.67456Q594.09724,396.92945,594.44239,397.2589Z"
          transform="translate(-207.47297 -319.40078)" fill="#fff"/>
    <path d="M649.94954,397.2589a18.49632,18.49632,0,0,1,28.39123,0,20.55816,20.55816,0,1,0-29.0658-.67462v0h0Q649.60429,396.92946,649.94954,397.2589Z"
          transform="translate(-207.47297 -319.40078)" fill="#fff"/>
    <circle cx="392.15207" cy="64.98755" r="7.0718" fill="#3f3d56"/>
    <circle cx="447.65717" cy="64.98755" r="7.0718" fill="#3f3d56"/>
    <circle cx="457.33401" cy="86.62655" r="6.19684" fill="#ff6584"/>
    <circle cx="401.33401" cy="86.62655" r="6.19684" fill="#ff6584"/>
    <ellipse cx="534.15932" cy="499.4112" rx="5.30817" ry="15.92447"
             transform="translate(-390.80612 38.79323) rotate(-31.93981)" fill="#3f3d56"/>
    <polyline points="360.474 142.389 326.686 177.977 335.496 193.148 367.393 174.088" fill="#3f3d56"/>
    <ellipse cx="611.28313" cy="525.28637" rx="5.30817" ry="15.92447"
             transform="matrix(0.14644, -0.98922, 0.98922, 0.14644, -205.33137, 733.65395)" fill="#3f3d56"/>
    <polyline points="397.024 155.777 402.261 204.569 419.496 208.148 425.659 171.033" fill="#3f3d56"/>
    <ellipse cx="679.97049" cy="521.33625" rx="15.92447" ry="5.30817"
             transform="translate(-259.59958 -243.24448) rotate(-6.17422)" fill="#3f3d56"/>
    <polyline points="453.303 155.154 470.666 201.051 488.247 200.172 484.859 162.701" fill="#3f3d56"/>
</svg>